<svg xmlns="http://www.w3.org/2000/svg" viewBox="0 0 215.18 213.1"><defs><style>.cls-1{fill:#fbfaff;}.cls-2{fill:#d5d1ed;}</style></defs><g id="Layer_2" data-name="Layer 2"><g id="Layer_1-2" data-name="Layer 1"><polygon class="cls-1" points="215.19 28.19 215.19 84.54 166.39 112.73 117.58 84.54 117.58 28.19 166.39 56.36 215.19 28.19"/><polygon class="cls-1" points="215.19 28.19 166.39 56.36 117.58 28.19 166.39 0 215.19 28.19"/><polygon class="cls-1" points="97.61 28.19 97.61 84.54 48.81 112.73 0 84.54 0 28.19 48.81 56.36 97.61 28.19"/><polygon class="cls-1" points="97.61 28.19 48.81 56.36 0 28.19 48.81 0 97.61 28.19"/><polygon class="cls-1" points="154.89 128.56 154.89 184.91 106.09 213.1 57.28 184.91 57.28 128.56 106.09 156.72 154.89 128.56"/><polygon class="cls-1" points="154.89 128.56 106.09 156.72 57.28 128.56 106.09 100.37 154.89 128.56"/><polygon class="cls-2" points="166.39 56.36 166.39 112.73 215.19 84.54 215.19 28.19 166.39 56.36"/><polygon class="cls-2" points="48.8 56.36 48.8 112.73 97.6 84.54 97.6 28.19 48.8 56.36"/><polygon class="cls-2" points="106.63 156.72 106.63 213.1 155.42 184.91 155.42 128.56 106.63 156.72"/></g></g></svg>